<svg id="visual" viewBox="0 0 900 600" width="900" height="600" xmlns="http://www.w3.org/2000/svg" xmlns:xlink="http://www.w3.org/1999/xlink" version="1.1"><rect x="0" y="0" width="900" height="600" fill="#FFFFFF"></rect><path d="M0 207L21.5 225.5C43 244 86 281 128.8 292.3C171.7 303.7 214.3 289.3 257.2 280.8C300 272.3 343 269.7 385.8 251.5C428.7 233.3 471.3 199.7 514.2 191.7C557 183.7 600 201.3 642.8 226.7C685.7 252 728.3 285 771.2 301.3C814 317.7 857 317.3 878.5 317.2L900 317L900 601L878.5 601C857 601 814 601 771.2 601C728.3 601 685.7 601 642.8 601C600 601 557 601 514.2 601C471.3 601 428.7 601 385.8 601C343 601 300 601 257.2 601C214.3 601 171.7 601 128.8 601C86 601 43 601 21.5 601L0 601Z" fill="#9e41c9"></path><path d="M0 389L21.5 378C43 367 86 345 128.8 337.7C171.7 330.3 214.3 337.7 257.2 349.3C300 361 343 377 385.8 365.2C428.7 353.3 471.3 313.7 514.2 306C557 298.3 600 322.7 642.8 324.7C685.7 326.7 728.3 306.3 771.2 304.3C814 302.3 857 318.7 878.5 326.8L900 335L900 601L878.5 601C857 601 814 601 771.2 601C728.3 601 685.7 601 642.8 601C600 601 557 601 514.2 601C471.3 601 428.7 601 385.8 601C343 601 300 601 257.2 601C214.3 601 171.7 601 128.8 601C86 601 43 601 21.5 601L0 601Z" fill="#893cba"></path><path d="M0 400L21.5 396.8C43 393.7 86 387.3 128.8 398.8C171.7 410.3 214.3 439.7 257.2 450.2C300 460.7 343 452.3 385.8 441.5C428.7 430.7 471.3 417.3 514.2 423.7C557 430 600 456 642.8 456.8C685.7 457.7 728.3 433.3 771.2 436C814 438.7 857 468.3 878.5 483.2L900 498L900 601L878.5 601C857 601 814 601 771.2 601C728.3 601 685.7 601 642.8 601C600 601 557 601 514.2 601C471.3 601 428.7 601 385.8 601C343 601 300 601 257.2 601C214.3 601 171.7 601 128.8 601C86 601 43 601 21.5 601L0 601Z" fill="#7436ab"></path></svg>