<svg id="visual" viewBox="0 0 960 340" width="960" height="340" xmlns="http://www.w3.org/2000/svg" xmlns:xlink="http://www.w3.org/1999/xlink" version="1.1"><rect x="0" y="0" width="960" height="340" fill="#ffffff"></rect><path d="M0 158L11.5 163.7C23 169.3 46 180.7 68.8 185.2C91.7 189.7 114.3 187.3 137.2 183C160 178.7 183 172.3 205.8 167.8C228.7 163.3 251.3 160.7 274.2 163.5C297 166.3 320 174.7 342.8 172.2C365.7 169.7 388.3 156.3 411.2 154.5C434 152.7 457 162.3 480 171.7C503 181 526 190 548.8 195.8C571.7 201.7 594.3 204.3 617.2 200.2C640 196 663 185 685.8 183.2C708.7 181.3 731.3 188.7 754.2 188.3C777 188 800 180 822.8 173.7C845.7 167.3 868.3 162.7 891.2 162.8C914 163 937 168 948.5 170.5L960 173L960 341L948.5 341C937 341 914 341 891.2 341C868.3 341 845.7 341 822.8 341C800 341 777 341 754.2 341C731.3 341 708.7 341 685.8 341C663 341 640 341 617.2 341C594.3 341 571.7 341 548.8 341C526 341 503 341 480 341C457 341 434 341 411.2 341C388.3 341 365.7 341 342.8 341C320 341 297 341 274.2 341C251.3 341 228.7 341 205.8 341C183 341 160 341 137.2 341C114.3 341 91.7 341 68.8 341C46 341 23 341 11.5 341L0 341Z" fill="#ffffff"></path><path d="M0 188L11.5 185.7C23 183.3 46 178.7 68.8 183.8C91.7 189 114.3 204 137.2 203.3C160 202.7 183 186.3 205.8 182.5C228.7 178.7 251.3 187.3 274.2 192.8C297 198.3 320 200.7 342.8 194.7C365.7 188.7 388.3 174.3 411.2 168C434 161.7 457 163.3 480 168.7C503 174 526 183 548.8 191.7C571.7 200.3 594.3 208.7 617.2 210.2C640 211.7 663 206.3 685.8 204.5C708.7 202.7 731.3 204.3 754.2 200.7C777 197 800 188 822.8 190.5C845.7 193 868.3 207 891.2 205.8C914 204.7 937 188.3 948.5 180.2L960 172L960 341L948.5 341C937 341 914 341 891.2 341C868.3 341 845.7 341 822.8 341C800 341 777 341 754.2 341C731.3 341 708.7 341 685.8 341C663 341 640 341 617.2 341C594.3 341 571.7 341 548.8 341C526 341 503 341 480 341C457 341 434 341 411.2 341C388.3 341 365.7 341 342.8 341C320 341 297 341 274.2 341C251.3 341 228.7 341 205.8 341C183 341 160 341 137.2 341C114.3 341 91.7 341 68.8 341C46 341 23 341 11.5 341L0 341Z" fill="#dbdbdb"></path><path d="M0 189L11.5 193.8C23 198.7 46 208.3 68.8 216.3C91.7 224.3 114.3 230.7 137.2 225.5C160 220.3 183 203.7 205.8 200.8C228.7 198 251.3 209 274.2 215C297 221 320 222 342.8 222C365.7 222 388.3 221 411.2 222.2C434 223.3 457 226.7 480 221.3C503 216 526 202 548.8 201.3C571.7 200.7 594.3 213.3 617.2 212.8C640 212.3 663 198.7 685.8 198.3C708.7 198 731.3 211 754.2 218.3C777 225.7 800 227.3 822.8 223.5C845.7 219.7 868.3 210.3 891.2 211.7C914 213 937 225 948.5 231L960 237L960 341L948.5 341C937 341 914 341 891.2 341C868.3 341 845.7 341 822.8 341C800 341 777 341 754.2 341C731.3 341 708.7 341 685.8 341C663 341 640 341 617.2 341C594.3 341 571.7 341 548.8 341C526 341 503 341 480 341C457 341 434 341 411.2 341C388.3 341 365.7 341 342.8 341C320 341 297 341 274.2 341C251.3 341 228.7 341 205.8 341C183 341 160 341 137.2 341C114.3 341 91.7 341 68.8 341C46 341 23 341 11.5 341L0 341Z" fill="#b9b9b9"></path><path d="M0 234L11.5 236C23 238 46 242 68.8 244.8C91.7 247.7 114.3 249.3 137.2 247.8C160 246.3 183 241.7 205.8 235.3C228.7 229 251.3 221 274.2 221.2C297 221.3 320 229.7 342.8 232.3C365.7 235 388.3 232 411.2 226.2C434 220.3 457 211.7 480 207.3C503 203 526 203 548.8 208.7C571.7 214.3 594.3 225.7 617.2 228.2C640 230.7 663 224.3 685.8 221.2C708.7 218 731.3 218 754.2 220.7C777 223.3 800 228.7 822.8 227.7C845.7 226.7 868.3 219.3 891.2 222C914 224.7 937 237.3 948.5 243.7L960 250L960 341L948.5 341C937 341 914 341 891.2 341C868.3 341 845.7 341 822.8 341C800 341 777 341 754.2 341C731.3 341 708.7 341 685.8 341C663 341 640 341 617.2 341C594.3 341 571.7 341 548.8 341C526 341 503 341 480 341C457 341 434 341 411.2 341C388.3 341 365.7 341 342.8 341C320 341 297 341 274.2 341C251.3 341 228.7 341 205.8 341C183 341 160 341 137.2 341C114.3 341 91.7 341 68.8 341C46 341 23 341 11.5 341L0 341Z" fill="#979797"></path><path d="M0 267L11.5 262.8C23 258.7 46 250.3 68.8 245.7C91.7 241 114.3 240 137.2 242C160 244 183 249 205.8 249.7C228.7 250.3 251.3 246.7 274.2 242.3C297 238 320 233 342.8 234.2C365.7 235.3 388.3 242.7 411.2 244.8C434 247 457 244 480 243C503 242 526 243 548.8 243.5C571.7 244 594.3 244 617.2 243.5C640 243 663 242 685.8 243.3C708.7 244.7 731.3 248.3 754.2 250.7C777 253 800 254 822.8 251.2C845.7 248.3 868.3 241.7 891.2 240C914 238.3 937 241.7 948.5 243.3L960 245L960 341L948.5 341C937 341 914 341 891.2 341C868.3 341 845.7 341 822.8 341C800 341 777 341 754.2 341C731.3 341 708.7 341 685.8 341C663 341 640 341 617.2 341C594.3 341 571.7 341 548.8 341C526 341 503 341 480 341C457 341 434 341 411.2 341C388.3 341 365.7 341 342.8 341C320 341 297 341 274.2 341C251.3 341 228.7 341 205.8 341C183 341 160 341 137.2 341C114.3 341 91.7 341 68.8 341C46 341 23 341 11.5 341L0 341Z" fill="#777777"></path><path d="M0 276L11.5 271.3C23 266.7 46 257.3 68.8 254.5C91.7 251.7 114.3 255.3 137.2 257C160 258.7 183 258.3 205.8 261.2C228.7 264 251.3 270 274.2 267.8C297 265.7 320 255.3 342.8 250.7C365.7 246 388.3 247 411.2 246.8C434 246.7 457 245.3 480 244.8C503 244.3 526 244.7 548.8 250C571.7 255.3 594.3 265.7 617.2 269.7C640 273.7 663 271.3 685.8 269.3C708.7 267.3 731.3 265.7 754.2 264.5C777 263.3 800 262.7 822.8 265.7C845.7 268.7 868.3 275.3 891.2 276.7C914 278 937 274 948.5 272L960 270L960 341L948.5 341C937 341 914 341 891.2 341C868.3 341 845.7 341 822.8 341C800 341 777 341 754.2 341C731.3 341 708.7 341 685.8 341C663 341 640 341 617.2 341C594.3 341 571.7 341 548.8 341C526 341 503 341 480 341C457 341 434 341 411.2 341C388.3 341 365.7 341 342.8 341C320 341 297 341 274.2 341C251.3 341 228.7 341 205.8 341C183 341 160 341 137.2 341C114.3 341 91.7 341 68.8 341C46 341 23 341 11.5 341L0 341Z" fill="#585858"></path><path d="M0 279L11.5 278.3C23 277.7 46 276.3 68.8 278.7C91.7 281 114.3 287 137.2 285.5C160 284 183 275 205.8 275.2C228.7 275.3 251.3 284.7 274.2 287.5C297 290.3 320 286.7 342.8 285.3C365.7 284 388.3 285 411.2 286.3C434 287.7 457 289.3 480 288.3C503 287.3 526 283.7 548.8 279.2C571.7 274.7 594.3 269.3 617.2 271.3C640 273.3 663 282.7 685.8 288C708.7 293.3 731.3 294.7 754.2 289.8C777 285 800 274 822.8 273.3C845.7 272.7 868.3 282.3 891.2 283C914 283.7 937 275.3 948.5 271.2L960 267L960 341L948.5 341C937 341 914 341 891.2 341C868.3 341 845.7 341 822.8 341C800 341 777 341 754.2 341C731.3 341 708.7 341 685.8 341C663 341 640 341 617.2 341C594.3 341 571.7 341 548.8 341C526 341 503 341 480 341C457 341 434 341 411.2 341C388.3 341 365.7 341 342.8 341C320 341 297 341 274.2 341C251.3 341 228.7 341 205.8 341C183 341 160 341 137.2 341C114.3 341 91.7 341 68.8 341C46 341 23 341 11.5 341L0 341Z" fill="#3b3b3b"></path><path d="M0 283L11.5 286.2C23 289.3 46 295.7 68.8 295.8C91.7 296 114.3 290 137.2 287.8C160 285.7 183 287.3 205.8 287.2C228.7 287 251.3 285 274.2 286.5C297 288 320 293 342.8 293.3C365.7 293.7 388.3 289.3 411.2 288.8C434 288.3 457 291.7 480 292.2C503 292.7 526 290.3 548.8 291.7C571.7 293 594.3 298 617.2 300.2C640 302.3 663 301.7 685.8 298.3C708.7 295 731.3 289 754.2 289.7C777 290.3 800 297.7 822.8 297.7C845.7 297.7 868.3 290.3 891.2 290.3C914 290.3 937 297.7 948.5 301.3L960 305L960 341L948.5 341C937 341 914 341 891.2 341C868.3 341 845.7 341 822.8 341C800 341 777 341 754.2 341C731.3 341 708.7 341 685.8 341C663 341 640 341 617.2 341C594.3 341 571.7 341 548.8 341C526 341 503 341 480 341C457 341 434 341 411.2 341C388.3 341 365.7 341 342.8 341C320 341 297 341 274.2 341C251.3 341 228.7 341 205.8 341C183 341 160 341 137.2 341C114.3 341 91.7 341 68.8 341C46 341 23 341 11.5 341L0 341Z" fill="#212121"></path><path d="M0 308L11.5 308C23 308 46 308 68.8 308.2C91.7 308.3 114.3 308.7 137.2 311.5C160 314.3 183 319.7 205.8 319.2C228.7 318.7 251.3 312.3 274.2 312.5C297 312.7 320 319.3 342.8 322C365.7 324.7 388.3 323.3 411.2 321.5C434 319.7 457 317.3 480 318.2C503 319 526 323 548.8 322.5C571.7 322 594.3 317 617.2 314.3C640 311.7 663 311.3 685.8 310.8C708.7 310.3 731.3 309.7 754.2 311C777 312.3 800 315.7 822.8 317.8C845.7 320 868.3 321 891.2 319.3C914 317.7 937 313.3 948.5 311.2L960 309L960 341L948.5 341C937 341 914 341 891.2 341C868.3 341 845.7 341 822.8 341C800 341 777 341 754.2 341C731.3 341 708.7 341 685.8 341C663 341 640 341 617.2 341C594.3 341 571.7 341 548.8 341C526 341 503 341 480 341C457 341 434 341 411.2 341C388.3 341 365.7 341 342.8 341C320 341 297 341 274.2 341C251.3 341 228.7 341 205.8 341C183 341 160 341 137.2 341C114.3 341 91.7 341 68.8 341C46 341 23 341 11.5 341L0 341Z" fill="#000000"></path></svg>