<svg id="visual" viewBox="0 0 960 540" width="960" height="540" xmlns="http://www.w3.org/2000/svg" xmlns:xlink="http://www.w3.org/1999/xlink" version="1.1"><rect x="0" y="0" width="960" height="540" fill="#ffffff"></rect><path d="M0 210L22.8 203.5C45.7 197 91.3 184 137 178.5C182.7 173 228.3 175 274 176C319.7 177 365.3 177 411.2 174.5C457 172 503 167 548.8 170.2C594.7 173.3 640.3 184.7 686 188.7C731.7 192.7 777.3 189.3 823 180.2C868.7 171 914.3 156 937.2 148.5L960 141L960 0L937.2 0C914.3 0 868.7 0 823 0C777.3 0 731.7 0 686 0C640.3 0 594.7 0 548.8 0C503 0 457 0 411.2 0C365.3 0 319.7 0 274 0C228.3 0 182.7 0 137 0C91.3 0 45.7 0 22.8 0L0 0Z" fill="#ffffff"></path><path d="M0 155L22.8 147.3C45.7 139.7 91.3 124.3 137 125C182.7 125.7 228.3 142.3 274 145.5C319.7 148.7 365.3 138.3 411.2 131C457 123.7 503 119.3 548.8 124C594.7 128.7 640.3 142.3 686 152.8C731.7 163.3 777.3 170.7 823 171.3C868.7 172 914.3 166 937.2 163L960 160L960 0L937.2 0C914.3 0 868.7 0 823 0C777.3 0 731.7 0 686 0C640.3 0 594.7 0 548.8 0C503 0 457 0 411.2 0C365.3 0 319.7 0 274 0C228.3 0 182.7 0 137 0C91.3 0 45.7 0 22.8 0L0 0Z" fill="#b9bcc2"></path><path d="M0 79L22.8 84.3C45.7 89.7 91.3 100.3 137 101C182.7 101.7 228.3 92.3 274 91.7C319.7 91 365.3 99 411.2 109.2C457 119.3 503 131.7 548.8 133C594.7 134.3 640.3 124.7 686 116C731.7 107.3 777.3 99.7 823 103C868.7 106.3 914.3 120.7 937.2 127.8L960 135L960 0L937.2 0C914.3 0 868.7 0 823 0C777.3 0 731.7 0 686 0C640.3 0 594.7 0 548.8 0C503 0 457 0 411.2 0C365.3 0 319.7 0 274 0C228.3 0 182.7 0 137 0C91.3 0 45.7 0 22.8 0L0 0Z" fill="#777d88"></path><path d="M0 52L22.8 54.8C45.7 57.7 91.3 63.3 137 65.3C182.7 67.3 228.3 65.7 274 68.8C319.7 72 365.3 80 411.2 86.5C457 93 503 98 548.8 100.7C594.7 103.3 640.3 103.7 686 102C731.7 100.3 777.3 96.7 823 96.7C868.7 96.7 914.3 100.3 937.2 102.2L960 104L960 0L937.2 0C914.3 0 868.7 0 823 0C777.3 0 731.7 0 686 0C640.3 0 594.7 0 548.8 0C503 0 457 0 411.2 0C365.3 0 319.7 0 274 0C228.3 0 182.7 0 137 0C91.3 0 45.7 0 22.8 0L0 0Z" fill="#3a4452"></path><path d="M0 37L22.8 38.7C45.7 40.3 91.3 43.7 137 42C182.7 40.3 228.3 33.7 274 29.5C319.7 25.3 365.3 23.7 411.2 26C457 28.3 503 34.7 548.8 41.5C594.7 48.3 640.3 55.7 686 59C731.7 62.3 777.3 61.7 823 55.8C868.7 50 914.3 39 937.2 33.5L960 28L960 0L937.2 0C914.3 0 868.7 0 823 0C777.3 0 731.7 0 686 0C640.3 0 594.7 0 548.8 0C503 0 457 0 411.2 0C365.3 0 319.7 0 274 0C228.3 0 182.7 0 137 0C91.3 0 45.7 0 22.8 0L0 0Z" fill="#001122"></path></svg>