<svg id="visual" viewBox="0 0 900 600" width="900" height="600" xmlns="http://www.w3.org/2000/svg" xmlns:xlink="http://www.w3.org/1999/xlink" version="1.1"><path d="M0 166L21.5 178C43 190 86 214 128.8 216.8C171.7 219.7 214.3 201.3 257.2 192.8C300 184.3 343 185.7 385.8 181.8C428.7 178 471.3 169 514.2 173.3C557 177.7 600 195.3 642.8 207.7C685.7 220 728.3 227 771.2 229C814 231 857 228 878.5 226.5L900 225L900 0L878.5 0C857 0 814 0 771.2 0C728.3 0 685.7 0 642.8 0C600 0 557 0 514.2 0C471.3 0 428.7 0 385.8 0C343 0 300 0 257.2 0C214.3 0 171.7 0 128.8 0C86 0 43 0 21.5 0L0 0Z" fill="#d2d2d2"></path><path d="M0 160L21.5 163.7C43 167.3 86 174.7 128.8 177.8C171.7 181 214.3 180 257.2 180C300 180 343 181 385.8 179.8C428.7 178.7 471.3 175.3 514.2 176.7C557 178 600 184 642.8 176.5C685.7 169 728.3 148 771.2 148.2C814 148.3 857 169.7 878.5 180.3L900 191L900 0L878.5 0C857 0 814 0 771.2 0C728.3 0 685.7 0 642.8 0C600 0 557 0 514.2 0C471.3 0 428.7 0 385.8 0C343 0 300 0 257.2 0C214.3 0 171.7 0 128.8 0C86 0 43 0 21.5 0L0 0Z" fill="#999999"></path><path d="M0 138L21.5 130.3C43 122.7 86 107.3 128.8 100C171.7 92.7 214.3 93.3 257.2 96.3C300 99.3 343 104.7 385.8 111.5C428.7 118.3 471.3 126.7 514.2 133.3C557 140 600 145 642.8 140.5C685.7 136 728.3 122 771.2 118.2C814 114.3 857 120.7 878.5 123.8L900 127L900 0L878.5 0C857 0 814 0 771.2 0C728.3 0 685.7 0 642.8 0C600 0 557 0 514.2 0C471.3 0 428.7 0 385.8 0C343 0 300 0 257.2 0C214.3 0 171.7 0 128.8 0C86 0 43 0 21.5 0L0 0Z" fill="#636363"></path><path d="M0 77L21.5 80.3C43 83.7 86 90.3 128.8 91.5C171.7 92.7 214.3 88.3 257.2 91.2C300 94 343 104 385.8 105.8C428.7 107.7 471.3 101.3 514.2 94C557 86.7 600 78.3 642.8 78C685.7 77.7 728.3 85.3 771.2 87.7C814 90 857 87 878.5 85.5L900 84L900 0L878.5 0C857 0 814 0 771.2 0C728.3 0 685.7 0 642.8 0C600 0 557 0 514.2 0C471.3 0 428.7 0 385.8 0C343 0 300 0 257.2 0C214.3 0 171.7 0 128.8 0C86 0 43 0 21.5 0L0 0Z" fill="#323232"></path><path d="M0 40L21.5 39.3C43 38.7 86 37.3 128.8 37C171.7 36.7 214.3 37.3 257.2 41.7C300 46 343 54 385.8 54C428.7 54 471.3 46 514.2 47.3C557 48.7 600 59.3 642.8 61.2C685.7 63 728.3 56 771.2 56C814 56 857 63 878.5 66.5L900 70L900 0L878.5 0C857 0 814 0 771.2 0C728.3 0 685.7 0 642.8 0C600 0 557 0 514.2 0C471.3 0 428.7 0 385.8 0C343 0 300 0 257.2 0C214.3 0 171.7 0 128.8 0C86 0 43 0 21.5 0L0 0Z" fill="#000000"></path></svg>