<svg id="visual" viewBox="0 0 900 600" width="900" height="600" xmlns="http://www.w3.org/2000/svg" xmlns:xlink="http://www.w3.org/1999/xlink" version="1.1"><rect x="0" y="0" width="900" height="600" fill="#ffffff"></rect><path d="M0 118L13.7 117.8C27.3 117.7 54.7 117.3 82 118C109.3 118.7 136.7 120.3 163.8 120C191 119.7 218 117.3 245.2 114.8C272.3 112.3 299.7 109.7 327 113.3C354.3 117 381.7 127 409 131C436.3 135 463.7 133 491 133.8C518.3 134.7 545.7 138.3 573 134.8C600.3 131.3 627.7 120.7 654.8 115.2C682 109.7 709 109.3 736.2 114.7C763.3 120 790.7 131 818 134.3C845.3 137.7 872.7 133.3 886.3 131.2L900 129L900 0L886.3 0C872.7 0 845.3 0 818 0C790.7 0 763.3 0 736.2 0C709 0 682 0 654.8 0C627.7 0 600.3 0 573 0C545.7 0 518.3 0 491 0C463.7 0 436.3 0 409 0C381.7 0 354.3 0 327 0C299.7 0 272.3 0 245.2 0C218 0 191 0 163.8 0C136.7 0 109.3 0 82 0C54.7 0 27.3 0 13.7 0L0 0Z" fill="#a8a8a8"></path><path d="M0 91L13.7 94.7C27.3 98.3 54.7 105.7 82 104.3C109.3 103 136.7 93 163.8 88.7C191 84.3 218 85.7 245.2 86.8C272.3 88 299.7 89 327 89.2C354.3 89.3 381.7 88.7 409 92.2C436.3 95.7 463.7 103.3 491 106.5C518.3 109.7 545.7 108.3 573 109.2C600.3 110 627.7 113 654.8 111.2C682 109.3 709 102.7 736.2 102.3C763.3 102 790.7 108 818 106.3C845.3 104.7 872.7 95.3 886.3 90.7L900 86L900 0L886.3 0C872.7 0 845.3 0 818 0C790.7 0 763.3 0 736.2 0C709 0 682 0 654.8 0C627.7 0 600.3 0 573 0C545.7 0 518.3 0 491 0C463.7 0 436.3 0 409 0C381.7 0 354.3 0 327 0C299.7 0 272.3 0 245.2 0C218 0 191 0 163.8 0C136.7 0 109.3 0 82 0C54.7 0 27.3 0 13.7 0L0 0Z" fill="#7b7b7b"></path><path d="M0 80L13.7 81C27.3 82 54.7 84 82 85C109.3 86 136.7 86 163.8 81.7C191 77.3 218 68.7 245.2 66.2C272.3 63.7 299.7 67.3 327 71C354.3 74.7 381.7 78.3 409 78.7C436.3 79 463.7 76 491 76.3C518.3 76.7 545.7 80.3 573 78.8C600.3 77.3 627.7 70.7 654.8 71.8C682 73 709 82 736.2 84C763.3 86 790.7 81 818 77.5C845.3 74 872.7 72 886.3 71L900 70L900 0L886.3 0C872.7 0 845.3 0 818 0C790.7 0 763.3 0 736.2 0C709 0 682 0 654.8 0C627.7 0 600.3 0 573 0C545.7 0 518.3 0 491 0C463.7 0 436.3 0 409 0C381.7 0 354.3 0 327 0C299.7 0 272.3 0 245.2 0C218 0 191 0 163.8 0C136.7 0 109.3 0 82 0C54.7 0 27.3 0 13.7 0L0 0Z" fill="#515151"></path><path d="M0 42L13.7 43.3C27.3 44.7 54.7 47.3 82 46.8C109.3 46.3 136.7 42.7 163.8 44.5C191 46.3 218 53.7 245.2 54.3C272.3 55 299.7 49 327 48.7C354.3 48.3 381.7 53.7 409 55.2C436.3 56.7 463.7 54.3 491 53.2C518.3 52 545.7 52 573 53.7C600.3 55.3 627.7 58.7 654.8 58.3C682 58 709 54 736.2 50C763.3 46 790.7 42 818 43.3C845.3 44.7 872.7 51.3 886.3 54.7L900 58L900 0L886.3 0C872.7 0 845.3 0 818 0C790.7 0 763.3 0 736.2 0C709 0 682 0 654.8 0C627.7 0 600.3 0 573 0C545.7 0 518.3 0 491 0C463.7 0 436.3 0 409 0C381.7 0 354.3 0 327 0C299.7 0 272.3 0 245.2 0C218 0 191 0 163.8 0C136.7 0 109.3 0 82 0C54.7 0 27.3 0 13.7 0L0 0Z" fill="#2a2a2a"></path><path d="M0 28L13.7 28.7C27.3 29.3 54.7 30.7 82 29.5C109.3 28.3 136.7 24.7 163.8 25.7C191 26.7 218 32.3 245.2 34.2C272.3 36 299.7 34 327 33.2C354.3 32.3 381.7 32.7 409 30.5C436.3 28.3 463.7 23.7 491 25C518.3 26.3 545.7 33.7 573 37.2C600.3 40.7 627.7 40.3 654.8 38.8C682 37.3 709 34.7 736.2 31.7C763.3 28.7 790.7 25.3 818 24.2C845.3 23 872.7 24 886.3 24.5L900 25L900 0L886.3 0C872.7 0 845.3 0 818 0C790.7 0 763.3 0 736.2 0C709 0 682 0 654.8 0C627.7 0 600.3 0 573 0C545.7 0 518.3 0 491 0C463.7 0 436.3 0 409 0C381.7 0 354.3 0 327 0C299.7 0 272.3 0 245.2 0C218 0 191 0 163.8 0C136.7 0 109.3 0 82 0C54.7 0 27.3 0 13.7 0L0 0Z" fill="#000000"></path></svg>