<svg id="visual" viewBox="0 0 960 340" width="960" height="340" xmlns="http://www.w3.org/2000/svg" xmlns:xlink="http://www.w3.org/1999/xlink" version="1.1"><rect x="0" y="0" width="960" height="340" fill="#ffffff"></rect><path d="M0 107L22.8 106.2C45.7 105.3 91.3 103.7 137 104C182.7 104.3 228.3 106.7 274 109.8C319.7 113 365.3 117 411.2 121C457 125 503 129 548.8 127.2C594.7 125.3 640.3 117.7 686 118.5C731.7 119.3 777.3 128.7 823 133C868.7 137.3 914.3 136.7 937.2 136.3L960 136L960 0L937.2 0C914.3 0 868.7 0 823 0C777.3 0 731.7 0 686 0C640.3 0 594.7 0 548.8 0C503 0 457 0 411.2 0C365.3 0 319.7 0 274 0C228.3 0 182.7 0 137 0C91.3 0 45.7 0 22.8 0L0 0Z" fill="#e9e9e9"></path><path d="M0 77L22.8 83.3C45.7 89.7 91.3 102.3 137 106.2C182.7 110 228.3 105 274 100.3C319.7 95.7 365.3 91.3 411.2 91.3C457 91.3 503 95.7 548.8 96.7C594.7 97.7 640.3 95.3 686 93.2C731.7 91 777.3 89 823 91.2C868.7 93.3 914.3 99.7 937.2 102.8L960 106L960 0L937.2 0C914.3 0 868.7 0 823 0C777.3 0 731.7 0 686 0C640.3 0 594.7 0 548.8 0C503 0 457 0 411.2 0C365.3 0 319.7 0 274 0C228.3 0 182.7 0 137 0C91.3 0 45.7 0 22.8 0L0 0Z" fill="#a9adb2"></path><path d="M0 75L22.8 71.8C45.7 68.7 91.3 62.3 137 60.2C182.7 58 228.3 60 274 62C319.7 64 365.3 66 411.2 70.5C457 75 503 82 548.8 82.5C594.7 83 640.3 77 686 72.3C731.7 67.7 777.3 64.3 823 62C868.7 59.7 914.3 58.3 937.2 57.7L960 57L960 0L937.2 0C914.3 0 868.7 0 823 0C777.3 0 731.7 0 686 0C640.3 0 594.7 0 548.8 0C503 0 457 0 411.2 0C365.3 0 319.7 0 274 0C228.3 0 182.7 0 137 0C91.3 0 45.7 0 22.8 0L0 0Z" fill="#6d747e"></path><path d="M0 59L22.8 56.5C45.7 54 91.3 49 137 47.2C182.7 45.3 228.3 46.7 274 45.8C319.7 45 365.3 42 411.2 40.7C457 39.3 503 39.7 548.8 43C594.7 46.3 640.3 52.7 686 52.2C731.7 51.7 777.3 44.3 823 43.5C868.7 42.7 914.3 48.3 937.2 51.2L960 54L960 0L937.2 0C914.3 0 868.7 0 823 0C777.3 0 731.7 0 686 0C640.3 0 594.7 0 548.8 0C503 0 457 0 411.2 0C365.3 0 319.7 0 274 0C228.3 0 182.7 0 137 0C91.3 0 45.7 0 22.8 0L0 0Z" fill="#36404e"></path><path d="M0 22L22.8 23C45.7 24 91.3 26 137 24.7C182.7 23.3 228.3 18.7 274 19.3C319.7 20 365.3 26 411.2 29.5C457 33 503 34 548.8 33.2C594.7 32.3 640.3 29.7 686 26.5C731.7 23.3 777.3 19.7 823 19.7C868.7 19.7 914.3 23.3 937.2 25.2L960 27L960 0L937.2 0C914.3 0 868.7 0 823 0C777.3 0 731.7 0 686 0C640.3 0 594.7 0 548.8 0C503 0 457 0 411.2 0C365.3 0 319.7 0 274 0C228.3 0 182.7 0 137 0C91.3 0 45.7 0 22.8 0L0 0Z" fill="#001122"></path></svg>